# xmcd
#
# Track frame offsets:
#	150
#	15986
#	34022
#	47576
#	62696
#	79241
#	94325
#	108179
#	121828
#
# Disc length: 1792 seconds
#
# Revision: 0
# Processed by: cddbd v1.5.2PL0 Copyright (c) Steve Scherf et al.
# Submitted via: audiograbber 1.83.01
#
DISCID=6406fe09
DTITLE=Colör - Colörado-Home again 2006
DYEAR=2006
DGENRE=Western
TTITLE0=Down at the Twist and shout
TTITLE1=Blanket on the ground
TTITLE2=Top of the world
TTITLE3=These Boots are made for Walking
TTITLE4=Me and Bobby McGee
TTITLE5=Home again
TTITLE6=It's not a ladies way
TTITLE7=Rosegarden
TTITLE8=Lladies Night
EXTD=
EXTT0=
EXTT1=
EXTT2=
EXTT3=
EXTT4=
EXTT5=
EXTT6=
EXTT7=
EXTT8=
PLAYORDER=
